Coordinates
version=1
nRows=13
nColumns=36
inDegrees=yes

Units are S.I. units (second, meters, Newtons, ...)
If the header above contains a line with 'inDegrees', this indicates whether rotational values are in degrees (yes) or radians (no).

endheader
time	pelvis_tilt	pelvis_list	pelvis_rotation	pelvis_tx	pelvis_ty	pelvis_tz	hip_flexion_r	hip_adduction_r	hip_rotation_r	knee_angle_r	knee_angle_r_beta	ankle_angle_r	subtalar_angle_r	mtp_angle_r	hip_flexion_l	hip_adduction_l	hip_rotation_l	knee_angle_l	knee_angle_l_beta	ankle_angle_l	subtalar_angle_l	mtp_angle_l	lumbar_extension	lumbar_bending	lumbar_rotation	arm_flex_r	arm_add_r	arm_rot_r	elbow_flex_r	pro_sup_r	arm_flex_l	arm_add_l	arm_rot_l	elbow_flex_l	pro_sup_l
      5.26666670	      1.48887677	     -0.00341507	      5.85712259	      0.83868191	      0.86607020	      0.01091125	     17.80865999	      1.47566286	     -0.74062790	     42.75639134	      0.74623981	      2.23982768	    -11.23792459	     -7.49999987	     16.00288277	     -2.16031006	      0.12007427	     45.87743645	      0.80071232	      0.04891141	     -0.39027654	     -7.49999987	     -9.52358223	     -1.26256873	     -3.17902611	      3.75626120	    -10.84255037	     33.43473709	     87.55906064	     77.83818124	     -0.39585827	    -15.22079614	     35.67417077	     93.10334171	     70.59909179
      5.28333330	      1.83181973	     -0.22710238	      6.35890776	      0.83422795	      0.83348814	      0.00865057	     19.33353768	      2.14599498	      0.43450010	     48.65003584	      0.84910331	     14.94167501	    -11.56718931	     -7.49999987	     17.88534589	     -1.85358526	      0.91460917	     51.90181320	      0.90585753	     12.83325960	     -0.26779880	     -7.49999987	    -10.26302568	     -1.19812491	     -3.82559191	      3.94124307	    -10.12754778	     32.47522775	     86.18283006	     82.23670398	      0.13903783	    -14.96556606	     35.24536706	     91.77575553	     73.29212128
      5.30000000	      1.81815817	     -0.50242921	      6.44872785	      0.83266556	      0.81705506	      0.00870277	     21.36206742	      2.93832484	      0.88261755	     53.65441815	      0.93644625	     22.61341401	    -12.88123043	     -7.49999987	     19.78276876	     -1.65666757	      1.12561687	     55.88874625	      0.97544264	     23.11578443	      0.13846072	     -7.49999987	    -10.71556072	     -1.04790897	     -3.93215690	      4.28301569	     -9.61338675	     31.77779245	     84.65052086	     82.03370635	      1.00012936	    -14.54650384	     34.80464402	     90.68335790	     73.26392771
      5.31666670	      2.23370193	     -1.19720765	      6.43565480	      0.83070516	      0.80899404	      0.00770490	     22.90311278	      4.19504621	      1.15370439	     57.58247362	      1.00500376	     26.72766104	    -13.38994419	     -7.49999987	     20.85500390	     -1.89861565	      1.81994978	     59.28199776	      1.03466605	     28.66538087	      0.38533897	     -7.49999987	    -11.49752986	     -0.28599587	     -3.96199494	      5.04380945	     -9.14910960	     31.15451061	     83.22971396	     81.89158775	      2.10644830	    -14.17151024	     34.49011114	     89.71247415	     73.02646886
      5.33333330	      2.28643430	     -1.57479701	      6.25066030	      0.83017611	      0.80140776	      0.00775006	     24.87155564	      5.01775683	      1.48821318	     61.56761942	      1.07455767	     28.14920334	    -13.59694417	     -7.49999987	     22.51266430	     -1.92832555	      2.83445513	     62.74509350	      1.09510847	     30.45773151	      0.46529724	     -7.49999987	    -11.90525794	      0.12203878	     -3.92821004	      5.65298551	     -8.71747732	     30.63189834	     82.18193703	     80.57191662	      2.92354265	    -13.95402894	     34.19061734	     89.08773491	     72.15209383
      5.35000000	      2.00216458	     -1.97885981	      5.42584132	      0.82703067	      0.80095741	      0.00655409	     26.97696482	      5.84183939	      2.20107357	     64.19114912	      1.12034690	     27.74073199	    -12.87937596	     -7.49999987	     24.60741281	     -2.00377155	      3.55772610	     65.72211740	      1.14706734	     29.15516666	     -0.22673660	     -7.49999987	    -12.54948497	      0.58194585	     -3.81001631	      6.48743495	     -8.39613029	     30.26793075	     81.95622197	     80.61486958	      3.11927655	    -13.80643086	     32.97053865	     89.72004976	     72.38601828
      5.36666670	      1.70676537	     -2.19532341	      5.11702065	      0.82800544	      0.80468060	      0.00574360	     27.84412937	      6.12026691	      2.65849355	     64.73177934	      1.12978268	     26.12292856	    -12.52522923	     -7.49999987	     25.66032571	     -2.07080181	      4.07864396	     66.54073733	      1.16135495	     26.67784886	     -0.53357335	     -7.49999987	    -12.77922155	      0.84980674	     -4.08427979	      6.83903108	     -8.09306867	     29.89968765	     82.06309416	     80.64485592	      3.22226477	    -13.94910046	     31.95138544	     90.76766406	     72.59452897
      5.38333330	      1.73745294	     -2.08830743	      5.32251958	      0.82693258	      0.81547325	      0.00686957	     27.16391426	      5.91808443	      2.82229093	     63.07396951	      1.10084844	     23.85968669	    -12.26511451	     -7.49999987	     25.39572807	     -2.17165283	      4.06920438	     65.28906018	      1.13950907	     24.12972784	      0.12039205	     -7.49999987	    -12.81578075	      0.75995984	     -4.49975329	      7.05649830	     -7.90860100	     29.59609940	     82.15547092	     78.39159566	      3.75492165	    -14.56105849	     31.71001930	     92.00145469	     71.40849626
      5.40000000	      2.29876689	     -1.74937466	      5.56792190	      0.83063831	      0.83146786	      0.00596008	     24.14572262	      5.41687555	      3.06929894	     58.77656137	      1.02584452	     21.33069701	    -11.84148194	     -7.49999987	     22.83622899	     -2.19740273	      3.52572260	     61.37425590	      1.07118284	     21.26769433	      0.92734280	     -7.49999987	    -12.25550728	      0.50591647	     -5.75572642	      7.75765219	     -7.47207871	     30.37352736	     80.64188740	     80.05489009	      3.10111167	    -15.08184359	     29.69590863	     92.90048138	     73.48207089
      5.41666670	      2.39272554	     -1.39013491	      5.94936236	      0.83644621	      0.83996016	      0.00402310	     21.16168012	      4.60497192	      2.80488092	     54.12540697	      0.94466656	     19.92451765	    -10.58903466	     -7.49999987	     20.12161942	     -2.30535025	      2.54636609	     56.71063593	      0.98978732	     19.78366721	      1.85734624	     -7.49999987	    -10.93834210	      0.10032678	     -5.88473256	      7.20248474	     -7.67726622	     30.08112914	     80.59402942	     79.77401497	      3.38108871	    -15.69726811	     29.85752766	     93.58298664	     73.50680620
      5.43333330	      2.51638462	     -1.16493277	      6.13782802	      0.83553214	      0.85233815	      0.00634938	     18.40240891	      4.02421965	      2.33836965	     49.23385490	      0.85929287	     18.09011716	     -9.63296037	     -7.49999987	     17.36917168	     -2.62324843	      1.24542592	     51.95276942	      0.90674688	     18.18209272	      3.06655561	     -7.49999987	     -9.41356006	     -0.25392074	     -5.83181368	      7.02955906	     -7.90178483	     30.16031865	     80.52816961	     79.82121777	      3.59301491	    -16.25813653	     29.91728241	     94.20441883	     73.60395733
      5.45000000	      2.34515173	     -1.06782704	      6.22696515	      0.83506024	      0.86230199	      0.00523565	     16.55192312	      3.56248670	      1.75495766	     45.09758918	      0.78710142	     16.57402325	     -8.50809626	     -7.49999987	     15.08436268	     -2.84059591	     -0.03347053	     47.19740093	      0.82375004	     16.21849533	      4.14104851	     -7.49999987	     -8.12167976	     -0.41433721	     -6.00193318	      6.83995150	     -8.32798055	     30.57218121	     81.36184673	     79.91648932	      3.57735016	    -16.86598439	     29.53666165	     95.75372391	     73.67187196
      5.46666670	      1.69788465	     -1.06476138	      6.21084905	      0.83672226	      0.88307407	      0.00379934	     14.67227324	      3.10641464	      1.14538653	     39.89919601	      0.69637234	     13.60080784	     -6.94921037	     -7.49999987	     12.92233973	     -2.97220031	     -1.27830493	     41.51895710	      0.72464250	     13.78106844	      5.86982185	     -7.49999987	     -5.99091850	     -0.53704874	     -6.27070866	      6.51213895	     -8.84962615	     30.87138799	     82.29829234	     81.31321153	      3.06896879	    -17.44623854	     29.34098979	     97.09963019	     74.58068112
